999
dxflib 3.26.4.0
  0
SECTION
  2
HEADER
  9
$ACADVER
  1
AC1015
  9
$HANDSEED
  5
FFFF
  0
ENDSEC
  0
SECTION
  2
TABLES
  0
TABLE
  2
VPORT
  5
8
100
AcDbSymbolTable
 70
1
  0
VPORT
  5
30
100
AcDbSymbolTableRecord
100
AcDbViewportTableRecord
  2
*Active
 70
0
 10
0.0
 20
0.0
 11
1.0
 21
1.0
 12
286.3055555555554861
 22
148.5
 13
0.0
 23
0.0
 14
10.0
 24
10.0
 15
10.0
 25
10.0
 16
0.0
 26
0.0
 36
1.0
 17
0.0
 27
0.0
 37
0.0
 40
297.0
 41
1.92798353909465
 42
50.0
 43
0.0
 44
0.0
 50
0.0
 51
0.0
 71
0
 72
100
 73
1
 74
3
 75
1
 76
1
 77
0
 78
0
281
0
 65
1
110
0.0
120
0.0
130
0.0
111
1.0
121
0.0
131
0.0
112
0.0
122
1.0
132
0.0
 79
0
146
0.0
  0
ENDTAB
  0
TABLE
  2
LTYPE
  5
5
100
AcDbSymbolTable
 70
1
  0
LTYPE
  5
16
100
AcDbSymbolTableRecord
100
AcDbLinetypeTableRecord
  2
CONTINUOUS
 70
0
  3
Solid line
 72
65
 73
0
 40
0.0
  0
LTYPE
  5
15
100
AcDbSymbolTableRecord
100
AcDbLinetypeTableRecord
  2
BYLAYER
 70
0
  3

 72
65
 73
0
 40
0.0
  0
LTYPE
  5
14
100
AcDbSymbolTableRecord
100
AcDbLinetypeTableRecord
  2
BYBLOCK
 70
0
  3

 72
65
 73
0
 40
0.0
  0
ENDTAB
  0
TABLE
  2
LAYER
  5
2
100
AcDbSymbolTable
 70
1
  0
LAYER
  5
10
100
AcDbSymbolTableRecord
100
AcDbLayerTableRecord
  2
0
 70
0
 62
1
420
16711680
  6
CONTINUOUS
370
15
390
F
  0
ENDTAB
  0
TABLE
  2
STYLE
  5
3
100
AcDbSymbolTable
 70
1
  0
STYLE
  5
31
100
AcDbSymbolTableRecord
100
AcDbTextStyleTableRecord
  2
Standard
 70
0
 40
0.0
 41
1.0
 50
0.0
 71
0
 42
2.5
  3

  4

1001
ACAD
1000
txt
1071
0
  0
ENDTAB
  0
TABLE
  2
VIEW
  5
6
100
AcDbSymbolTable
 70
0
  0
ENDTAB
  0
TABLE
  2
UCS
  5
7
100
AcDbSymbolTable
 70
0
  0
ENDTAB
  0
TABLE
  2
APPID
  5
9
100
AcDbSymbolTable
 70
1
  0
APPID
  5
12
100
AcDbSymbolTableRecord
100
AcDbRegAppTableRecord
  2
ACAD
 70
0
  0
ENDTAB
  0
TABLE
  2
DIMSTYLE
  5
A
100
AcDbSymbolTable
 70
1
100
AcDbDimStyleTable
 71
0
  0
DIMSTYLE
105
27
100
AcDbSymbolTableRecord
100
AcDbDimStyleTableRecord
  2
Standard
 41
2.5
 42
0.625
 43
3.75
 44
0.625
 70
0
 73
0
 74
0
 77
1
 78
8
140
2.5
141
2.5
143
0.03937007874016
147
0.625
171
3
172
1
271
2
272
2
274
3
278
44
283
0
284
8
340
31
  0
ENDTAB
  0
TABLE
  2
BLOCK_RECORD
  5
1
100
AcDbSymbolTable
 70
1
  0
BLOCK_RECORD
  5
1F
100
AcDbSymbolTableRecord
100
AcDbBlockTableRecord
  2
*Model_Space
340
22
  0
BLOCK_RECORD
  5
1B
100
AcDbSymbolTableRecord
100
AcDbBlockTableRecord
  2
*Paper_Space
340
1E
  0
BLOCK_RECORD
  5
23
100
AcDbSymbolTableRecord
100
AcDbBlockTableRecord
  2
*Paper_Space0
340
26
  0
ENDTAB
  0
ENDSEC
  0
SECTION
  2
BLOCKS
  0
BLOCK
  5
20
100
AcDbEntity
  8
0
100
AcDbBlockBegin
  2
*Model_Space
 70
0
 10
0.0
 20
0.0
 30
0.0
  3
*Model_Space
  1

  0
ENDBLK
  5
21
100
AcDbEntity
  8
0
100
AcDbBlockEnd
  0
BLOCK
  5
1C
100
AcDbEntity
 67
1
  8
0
100
AcDbBlockBegin
  2
*Paper_Space
 70
0
 10
0.0
 20
0.0
 30
0.0
  3
*Paper_Space
  1

  0
ENDBLK
  5
1D
100
AcDbEntity
 67
1
  8
0
100
AcDbBlockEnd
  0
BLOCK
  5
24
100
AcDbEntity
  8
0
100
AcDbBlockBegin
  2
*Paper_Space0
 70
0
 10
0.0
 20
0.0
 30
0.0
  3
*Paper_Space0
  1

  0
ENDBLK
  5
25
100
AcDbEntity
  8
0
100
AcDbBlockEnd
  0
ENDSEC
  0
SECTION
  2
ENTITIES
  0
LINE
  5
32
100
AcDbEntity
  8
0
 62
256
370
-1
 48
1.0
  6
BYLAYER
100
AcDbLine
 10
10.0
 20
5.0
 30
0.0
 11
30.0
 21
5.0
 31
0.0
  0
LINE
  5
33
100
AcDbEntity
  8
0
 62
256
370
-1
 48
1.0
  6
BYLAYER
100
AcDbLine
 10
1134.6837158203125
 20
68.66802978515625
 30
0.0
 11
116.6647796630859375
 21
54.6643905639648438
 31
0.0
  0
LINE
  5
34
100
AcDbEntity
  8
0
 62
256
370
-1
 48
1.0
  6
BYLAYER
100
AcDbLine
 10
116.6647796630859375
 20
54.6643905639648438
 30
0.0
 11
80.39202880859375
 21
76.8196640014648438
 31
0.0
  0
LINE
  5
35
100
AcDbEntity
  8
0
 62
256
370
-1
 48
1.0
  6
BYLAYER
100
AcDbLine
 10
80.39202880859375
 20
76.8196640014648438
 30
0.0
 11
1100.6568603515625
 21
92.32147216796875
 31
0.0
  0
LINE
  5
36
100
AcDbEntity
  8
0
 62
256
370
-1
 48
1.0
  6
BYLAYER
100
AcDbLine
 10
1100.6568603515625
 20
92.32147216796875
 30
0.0
 11
1134.6837158203125
 21
68.66802978515625
 31
0.0
  0
LINE
  5
37
100
AcDbEntity
  8
0
 62
256
370
-1
 48
1.0
  6
BYLAYER
100
AcDbLine
 10
191.0460052490234375
 20
105.16790771484375
 30
0.0
 11
176.6459197998046875
 21
1150.1002197265625
 31
0.0
  0
LINE
  5
38
100
AcDbEntity
  8
0
 62
256
370
-1
 48
1.0
  6
BYLAYER
100
AcDbLine
 10
176.6459197998046875
 20
1150.1002197265625
 30
0.0
 11
197.421295166015625
 21
1147.7452392578125
 31
0.0
  0
LINE
  5
39
100
AcDbEntity
  8
0
 62
256
370
-1
 48
1.0
  6
BYLAYER
100
AcDbLine
 10
197.421295166015625
 20
1147.7452392578125
 30
0.0
 11
215.489166259765625
 21
109.2816009521484375
 31
0.0
  0
LINE
  5
3A
100
AcDbEntity
  8
0
 62
256
370
-1
 48
1.0
  6
BYLAYER
100
AcDbLine
 10
215.489166259765625
 20
109.2816009521484375
 30
0.0
 11
191.0460052490234375
 21
105.16790771484375
 31
0.0
  0
LINE
  5
3B
100
AcDbEntity
  8
0
 62
256
370
-1
 48
1.0
  6
BYLAYER
100
AcDbLine
 10
300.207550048828125
 20
99.4423828125
 30
0.0
 11
1300.3837890625
 21
97.1374359130859375
 31
0.0
  0
LINE
  5
3C
100
AcDbEntity
  8
0
 62
256
370
-1
 48
1.0
  6
BYLAYER
100
AcDbLine
 10
1300.3837890625
 20
97.1374359130859375
 30
0.0
 11
1358.8233642578125
 21
84.2064437866210938
 31
0.0
  0
LINE
  5
3D
100
AcDbEntity
  8
0
 62
256
370
-1
 48
1.0
  6
BYLAYER
100
AcDbLine
 10
1358.8233642578125
 20
84.2064437866210938
 30
0.0
 11
336.5862274169921875
 21
80.5307159423828125
 31
0.0
  0
LINE
  5
3E
100
AcDbEntity
  8
0
 62
256
370
-1
 48
1.0
  6
BYLAYER
100
AcDbLine
 10
336.5862274169921875
 20
80.5307159423828125
 30
0.0
 11
300.207550048828125
 21
99.4423828125
 31
0.0
  0
LINE
  5
3F
100
AcDbEntity
  8
0
 62
256
370
-1
 48
1.0
  6
BYLAYER
100
AcDbLine
 10
1914.337646484375
 20
76.24908447265625
 30
0.0
 11
382.59039306640625
 21
67.249481201171875
 31
0.0
  0
LINE
  5
40
100
AcDbEntity
  8
0
 62
256
370
-1
 48
1.0
  6
BYLAYER
100
AcDbLine
 10
382.59039306640625
 20
67.249481201171875
 30
0.0
 11
396.8788604736328125
 21
76.248931884765625
 31
0.0
  0
LINE
  5
41
100
AcDbEntity
  8
0
 62
256
370
-1
 48
1.0
  6
BYLAYER
100
AcDbLine
 10
396.8788604736328125
 20
76.248931884765625
 30
0.0
 11
1930.098876953125
 21
88.2536697387695313
 31
0.0
  0
LINE
  5
42
100
AcDbEntity
  8
0
 62
256
370
-1
 48
1.0
  6
BYLAYER
100
AcDbLine
 10
1930.098876953125
 20
88.2536697387695313
 30
0.0
 11
1914.337646484375
 21
76.24908447265625
 31
0.0
  0
LINE
  5
43
100
AcDbEntity
  8
0
 62
256
370
-1
 48
1.0
  6
BYLAYER
100
AcDbLine
 10
2125.46630859375
 20
80.1447601318359375
 30
0.0
 11
561.2739105224609375
 21
75.861602783203125
 31
0.0
  0
LINE
  5
44
100
AcDbEntity
  8
0
 62
256
370
-1
 48
1.0
  6
BYLAYER
100
AcDbLine
 10
561.2739105224609375
 20
75.861602783203125
 30
0.0
 11
526.8409042358398438
 21
100.3479766845703125
 31
0.0
  0
LINE
  5
45
100
AcDbEntity
  8
0
 62
256
370
-1
 48
1.0
  6
BYLAYER
100
AcDbLine
 10
526.8409042358398438
 20
100.3479766845703125
 30
0.0
 11
2087.7486572265625
 21
100.2392959594726563
 31
0.0
  0
LINE
  5
46
100
AcDbEntity
  8
0
 62
256
370
-1
 48
1.0
  6
BYLAYER
100
AcDbLine
 10
2087.7486572265625
 20
100.2392959594726563
 30
0.0
 11
2125.46630859375
 21
80.1447601318359375
 31
0.0
  0
LINE
  5
47
100
AcDbEntity
  8
0
 62
256
370
-1
 48
1.0
  6
BYLAYER
100
AcDbLine
 10
2201.11083984375
 20
85.8467941284179688
 30
0.0
 11
575.9964447021484375
 21
98.208465576171875
 31
0.0
  0
LINE
  5
48
100
AcDbEntity
  8
0
 62
256
370
-1
 48
1.0
  6
BYLAYER
100
AcDbLine
 10
575.9964447021484375
 20
98.208465576171875
 30
0.0
 11
596.3873825073242188
 21
121.0379638671875
 31
0.0
  0
LINE
  5
49
100
AcDbEntity
  8
0
 62
256
370
-1
 48
1.0
  6
BYLAYER
100
AcDbLine
 10
596.3873825073242188
 20
121.0379638671875
 30
0.0
 11
2221.275146484375
 21
120.9588623046875
 31
0.0
  0
LINE
  5
4A
100
AcDbEntity
  8
0
 62
256
370
-1
 48
1.0
  6
BYLAYER
100
AcDbLine
 10
2221.275146484375
 20
120.9588623046875
 30
0.0
 11
2201.11083984375
 21
85.8467941284179688
 31
0.0
  0
LINE
  5
4B
100
AcDbEntity
  8
0
 62
256
370
-1
 48
1.0
  6
BYLAYER
100
AcDbLine
 10
2430.8470458984375
 20
116.6593170166015625
 30
0.0
 11
725.578765869140625
 21
96.734588623046875
 31
0.0
  0
LINE
  5
4C
100
AcDbEntity
  8
0
 62
256
370
-1
 48
1.0
  6
BYLAYER
100
AcDbLine
 10
725.578765869140625
 20
96.734588623046875
 30
0.0
 11
725.2690887451171875
 21
139.281982421875
 31
0.0
  0
LINE
  5
4D
100
AcDbEntity
  8
0
 62
256
370
-1
 48
1.0
  6
BYLAYER
100
AcDbLine
 10
725.2690887451171875
 20
139.281982421875
 30
0.0
 11
2427.5380859375
 21
133.960845947265625
 31
0.0
  0
LINE
  5
4E
100
AcDbEntity
  8
0
 62
256
370
-1
 48
1.0
  6
BYLAYER
100
AcDbLine
 10
2427.5380859375
 20
133.960845947265625
 30
0.0
 11
2430.8470458984375
 21
116.6593170166015625
 31
0.0
  0
LINE
  5
4F
100
AcDbEntity
  8
0
 62
256
370
-1
 48
1.0
  6
BYLAYER
100
AcDbLine
 10
911.480499267578125
 20
102.254974365234375
 30
0.0
 11
791.3928756713867188
 21
1953.4058837890625
 31
0.0
  0
LINE
  5
50
100
AcDbEntity
  8
0
 62
256
370
-1
 48
1.0
  6
BYLAYER
100
AcDbLine
 10
791.3928756713867188
 20
1953.4058837890625
 30
0.0
 11
808.423187255859375
 21
1962.07421875
 31
0.0
  0
LINE
  5
51
100
AcDbEntity
  8
0
 62
256
370
-1
 48
1.0
  6
BYLAYER
100
AcDbLine
 10
808.423187255859375
 20
1962.07421875
 30
0.0
 11
937.041656494140625
 21
114.1540908813476563
 31
0.0
  0
LINE
  5
52
100
AcDbEntity
  8
0
 62
256
370
-1
 48
1.0
  6
BYLAYER
100
AcDbLine
 10
937.041656494140625
 20
114.1540908813476563
 30
0.0
 11
911.480499267578125
 21
102.254974365234375
 31
0.0
  0
LINE
  5
53
100
AcDbEntity
  8
0
 62
256
370
-1
 48
1.0
  6
BYLAYER
100
AcDbLine
 10
884.7552490234375
 20
2042.3148193359375
 30
0.0
 11
892.3512420654296875
 21
189.372314453125
 31
0.0
  0
LINE
  5
54
100
AcDbEntity
  8
0
 62
256
370
-1
 48
1.0
  6
BYLAYER
100
AcDbLine
 10
892.3512420654296875
 20
189.372314453125
 30
0.0
 11
863.8046722412109375
 21
156.12701416015625
 31
0.0
  0
LINE
  5
55
100
AcDbEntity
  8
0
 62
256
370
-1
 48
1.0
  6
BYLAYER
100
AcDbLine
 10
863.8046722412109375
 20
156.12701416015625
 30
0.0
 11
853.7663002014160156
 21
2027.322265625
 31
0.0
  0
LINE
  5
56
100
AcDbEntity
  8
0
 62
256
370
-1
 48
1.0
  6
BYLAYER
100
AcDbLine
 10
853.7663002014160156
 20
2027.322265625
 30
0.0
 11
884.7552490234375
 21
2042.3148193359375
 31
0.0
  0
LINE
  5
57
100
AcDbEntity
  8
0
 62
256
370
-1
 48
1.0
  6
BYLAYER
100
AcDbLine
 10
997.846588134765625
 20
120.2075271606445313
 30
0.0
 11
983.1480255126953125
 21
2217.319091796875
 31
0.0
  0
LINE
  5
58
100
AcDbEntity
  8
0
 62
256
370
-1
 48
1.0
  6
BYLAYER
100
AcDbLine
 10
983.1480255126953125
 20
2217.319091796875
 30
0.0
 11
1020.3322296142578125
 21
2226.887451171875
 31
0.0
  0
LINE
  5
59
100
AcDbEntity
  8
0
 62
256
370
-1
 48
1.0
  6
BYLAYER
100
AcDbLine
 10
1020.3322296142578125
 20
2226.887451171875
 30
0.0
 11
1022.160308837890625
 21
132.7579345703125
 31
0.0
  0
LINE
  5
5A
100
AcDbEntity
  8
0
 62
256
370
-1
 48
1.0
  6
BYLAYER
100
AcDbLine
 10
1022.160308837890625
 20
132.7579345703125
 30
0.0
 11
997.846588134765625
 21
120.2075271606445313
 31
0.0
  0
ENDSEC
  0
SECTION
  2
OBJECTS
  0
DICTIONARY
  5
C
100
AcDbDictionary
280
0
281
1
  3
ACAD_GROUP
350
D
  3
ACAD_LAYOUT
350
1A
  3
ACAD_MLINESTYLE
350
17
  3
ACAD_PLOTSETTINGS
350
19
  3
ACAD_PLOTSTYLENAME
350
E
  3
AcDbVariableDictionary
350
5B
  3
MY_OBJECTS
350
5C
  0
DICTIONARY
  5
D
100
AcDbDictionary
280
0
281
1
  0
ACDBDICTIONARYWDFLT
  5
E
100
AcDbDictionary
281
1
  3
Normal
350
F
100
AcDbDictionaryWithDefault
340
F
  0
ACDBPLACEHOLDER
  5
F
  0
DICTIONARY
  5
17
100
AcDbDictionary
280
0
281
1
  3
Standard
350
18
  0
MLINESTYLE
  5
18
100
AcDbMlineStyle
  2
STANDARD
 70
0
  3

 62
256
 51
90.0
 52
90.0
 71
2
 49
0.5
 62
256
  6
BYLAYER
 49
-0.5
 62
256
  6
BYLAYER
  0
DICTIONARY
  5
19
100
AcDbDictionary
280
0
281
1
  0
DICTIONARY
  5
1A
100
AcDbDictionary
281
1
  3
Layout1
350
1E
  3
Layout2
350
26
  3
Model
350
22
  0
LAYOUT
  5
1E
100
AcDbPlotSettings
  1

  2
none_device
  4

  6

 40
0.0
 41
0.0
 42
0.0
 43
0.0
 44
0.0
 45
0.0
 46
0.0
 47
0.0
 48
0.0
 49
0.0
140
0.0
141
0.0
142
1.0
143
1.0
 70
688
 72
0
 73
0
 74
5
  7

 75
16
147
1.0
148
0.0
149
0.0
100
AcDbLayout
  1
Layout1
 70
1
 71
1
 10
0.0
 20
0.0
 11
420.0
 21
297.0
 12
0.0
 22
0.0
 32
0.0
 14
100000000000000000000.0
 24
100000000000000000000.0
 34
100000000000000000000.0
 15
-100000000000000000000.0
 25
-100000000000000000000.0
 35
-100000000000000000000.0
146
0.0
 13
0.0
 23
0.0
 33
0.0
 16
1.0
 26
0.0
 36
0.0
 17
0.0
 27
1.0
 37
0.0
 76
0
330
1B
  0
LAYOUT
  5
22
100
AcDbPlotSettings
  1

  2
none_device
  4

  6

 40
0.0
 41
0.0
 42
0.0
 43
0.0
 44
0.0
 45
0.0
 46
0.0
 47
0.0
 48
0.0
 49
0.0
140
0.0
141
0.0
142
1.0
143
1.0
 70
1712
 72
0
 73
0
 74
0
  7

 75
0
147
1.0
148
0.0
149
0.0
100
AcDbLayout
  1
Model
 70
1
 71
0
 10
0.0
 20
0.0
 11
12.0
 21
9.0
 12
0.0
 22
0.0
 32
0.0
 14
0.0
 24
0.0
 34
0.0
 15
0.0
 25
0.0
 35
0.0
146
0.0
 13
0.0
 23
0.0
 33
0.0
 16
1.0
 26
0.0
 36
0.0
 17
0.0
 27
1.0
 37
0.0
 76
0
330
1F
  0
LAYOUT
  5
26
100
AcDbPlotSettings
  1

  2
none_device
  4

  6

 40
0.0
 41
0.0
 42
0.0
 43
0.0
 44
0.0
 45
0.0
 46
0.0
 47
0.0
 48
0.0
 49
0.0
140
0.0
141
0.0
142
1.0
143
1.0
 70
688
 72
0
 73
0
 74
5
  7

 75
16
147
1.0
148
0.0
149
0.0
100
AcDbLayout
  1
Layout2
 70
1
 71
2
 10
0.0
 20
0.0
 11
12.0
 21
9.0
 12
0.0
 22
0.0
 32
0.0
 14
0.0
 24
0.0
 34
0.0
 15
0.0
 25
0.0
 35
0.0
146
0.0
 13
0.0
 23
0.0
 33
0.0
 16
1.0
 26
0.0
 36
0.0
 17
0.0
 27
1.0
 37
0.0
 76
0
330
23
  0
DICTIONARY
  5
5B
100
AcDbDictionary
281
1
  3
DIMASSOC
350
5E
  3
HIDETEXT
350
5D
  0
DICTIONARYVAR
  5
5D
100
DictionaryVariables
280
0
  1
2
  0
DICTIONARYVAR
  5
5E
100
DictionaryVariables
280
0
  1
1
  0
ENDSEC
  0
EOF
